<svg xmlns="http://www.w3.org/2000/svg" width="29" height="29" viewBox="0 0 29 29">
  <path id="Baikal_Logo" data-name="Baikal Logo" d="M14.5,29h0c-.256,0-.478-.008-.679-.017A14.5,14.5,0,0,1,8.705,1.209,14.361,14.361,0,0,1,14.5,0c.212,0,.441.005.681.016a14.5,14.5,0,0,1,5.114,27.773A14.363,14.363,0,0,1,14.5,29ZM12.045,15.36A2.288,2.288,0,0,0,11,15.616c-.012.008-1.259.779-2.5,1.708-2.078,1.564-1.976,2.3-1.556,2.856a9.459,9.459,0,0,0,6.9,3.757c.221.015.445.023.666.023a9.485,9.485,0,0,0,8.89-6.244.587.587,0,0,0-.225-.674l-.9-.638a2.279,2.279,0,0,0-2.367-.166l-2.177,1.128a2.279,2.279,0,0,1-2.367-.166l-2-1.42A2.268,2.268,0,0,0,12.045,15.36Zm.271-3.985a2.268,2.268,0,0,1,1.32.421l2,1.42a2.275,2.275,0,0,0,1.319.422A2.3,2.3,0,0,0,18,13.382l.012-.008c.308-.192,1.4-.883,2.483-1.7,2.078-1.564,1.976-2.3,1.556-2.856a9.465,9.465,0,0,0-6.9-3.757c-.225-.015-.449-.023-.667-.023A9.484,9.484,0,0,0,5.6,11.281a.587.587,0,0,0,.225.674l.9.638a2.28,2.28,0,0,0,2.367.166l2.178-1.128A2.289,2.289,0,0,1,12.316,11.376Z" fill="#3b3d40"/>
</svg>
